{"title":"Krrish-3 {2013} 720p x264 5.1ch HDSCR-Audio Cleaned- {AK247} EXC","uid":9164247,"size":1363695077,"categoryP":"video","categoryS":"hd___movies","magnet":"?xt=urn:btih:0e48c4ac3e223841cd4ddeea4376384ed68e1ed2&amp;dn=Krrish-3+%7B2013%7D+720p+x264+5.1ch+HDSCR-Audio+Cleaned-+%7BAK247%7D+EXC&amp;tr=udp%3A%2F%2Ftracker.openbittorrent.com%3A80&amp;tr=udp%3A%2F%2Fopen.demonii.com%3A1337&amp;tr=udp%3A%2F%2Ftracker.coppersurfer.tk%3A6969&amp;tr=udp%3A%2F%2Fexodus.desync.com%3A6969","seeders":1,"leechers":0,"uploader":"TeX","files":2,"time":1383938464,"description":"[img]https://yuq.me/movies/10/292/1029231.jpg[/img]\n\nGeneral\nUnique ID : 178025982176190302723055036497760144032 (0x85EE8E973CE77B3EA325E41E10D8CAA0)\nComplete name : C:Usersak247VideosKrissh3 {2013} 720p x264 5.1ch HDSCR (Audio Cleaned) [=AK247=] EXCLUSIVE.mkv\nFormat : Matroska\nFormat version : Version 4 / Version 2\nFile size : 1.26 GiB\nDuration : 2h 31mn\nOverall bit rate : 1 187 Kbps\nEncoded date : UTC 2013-11-08 06:06:15\nWriting application : mkvmerge v6.1.0 ('Old Devil') built on Mar 2 2013 14:32:37\nWriting library : libebml v1.3.0 + libmatroska v1.4.0\n\nVideo\nID : 1\nFormat : AVC\nFormat/Info : Advanced Video Codec\nFormat profile : &lt;a class=&quot;__cf_email__&quot; href=&quot;/cdn-cgi/l/email-protection&quot; data-cfemail=&quot;f6be9f919eb6bac5d8c7&quot;&gt;[email&amp;#160;protected]&lt;/a&gt;&lt;script cf-hash='f9e31' type=&quot;text/javascript&quot;&gt;\n/* &lt;![CDATA[ */!function(){try{var t=&quot;currentScript&quot;in document?document.currentScript:function(){for(var t=document.getElementsByTagName(&quot;script&quot;),e=t.length;e--;)if(t[e].getAttribute(&quot;cf-hash&quot;))return t[e]}();if(t&amp;&amp;t.previousSibling){var e,r,n,i,c=t.previousSibling,a=c.getAttribute(&quot;data-cfemail&quot;);if(a){for(e=&quot;&quot;,r=parseInt(a.substr(0,2),16),n=2;a.length-n;n+=2)i=parseInt(a.substr(n,2),16)^r,e+=String.fromCharCode(i);e=document.createTextNode(e),c.parentNode.replaceChild(e,c)}}}catch(u){}}();/* ]]&gt; */&lt;/script&gt;\nFormat settings, CABAC : Yes\nFormat settings, ReFrames : 2 frames\nFormat settings, GOP : M=1, N=25\nCodec ID : V_MPEG4/ISO/AVC\nDuration : 2h 31mn\nBit rate : 972 Kbps\nWidth : 1 280 pixels\nHeight : 544 pixels\nDisplay aspect ratio : 2.35:1\nFrame rate mode : Constant\nFrame rate : 23.976 fps\nColor space : YUV\nChroma subsampling : 4:2:0\nBit depth : 8 bits\nScan type : Progressive\nBits/(Pixel*Frame) : 0.058\nStream size : 1.03 GiB (82%)\nDefault : Yes\nForced : No\n\nAudio\nID : 2\nFormat : AC-3\nFormat/Info : Audio Coding 3\nMode extension : CM (complete main)\nFormat settings, Endianness : Big\nCodec ID : A_AC3\nDuration : 2h 31mn\nBit rate mode : Constant\nBit rate : 192 Kbps\nChannel count : 2 channels\nChannel positions : Front: L R\nSampling rate : 48.0 KHz\nBit depth : 16 bits\nCompression mode : Lossy\nStream size : 208 MiB (16%)\nDefault : Yes\nForced : No\n\n\n[img]http://s14.postimg.org/nfq8zi0jl/vlcsnap_2013_11_08_13h25m08s209.png[/img]\n[img]http://s13.postimg.org/iyiwvy9pj/vlcsnap_2013_11_08_06h58m16s19.png[/img]\n[img]http://s21.postimg.org/6q3zlk0l3/vlcsnap_2013_11_08_06h57m33s6.png[/img][b][/b]","torrent":{"xt":"urn:btih:0e48c4ac3e223841cd4ddeea4376384ed68e1ed2","amp;dn":"Krrish-3+%7B2013%7D+720p+x264+5.1ch+HDSCR-Audio+Cleaned-+%7BAK247%7D+EXC","amp;tr":["udp%3A%2F%2Ftracker.openbittorrent.com%3A80","udp%3A%2F%2Fopen.demonii.com%3A1337","udp%3A%2F%2Ftracker.coppersurfer.tk%3A6969","udp%3A%2F%2Fexodus.desync.com%3A6969"],"infoHash":"0e48c4ac3e223841cd4ddeea4376384ed68e1ed2","infoHashBuffer":{"type":"Buffer","data":[14,72,196,172,62,34,56,65,205,77,222,234,67,118,56,78,214,142,30,210]},"announce":[],"urlList":[]}}